<?xml version="1.0" encoding="UTF-8" standalone="no"?>
<!-- Created with Inkscape (http://www.inkscape.org/) -->

<svg
   width="685.70081"
   height="320.51965"
   viewBox="0 0 181.425 84.804164"
   version="1.1"
   id="svg5"
   sodipodi:docname="logo.svg"
   inkscape:version="1.1.2 (0a00cf5339, 2022-02-04)"
   xmlns:inkscape="http://www.inkscape.org/namespaces/inkscape"
   xmlns:sodipodi="http://sodipodi.sourceforge.net/DTD/sodipodi-0.dtd"
   xmlns="http://www.w3.org/2000/svg"
   xmlns:svg="http://www.w3.org/2000/svg">
  <sodipodi:namedview
     id="namedview7"
     pagecolor="#ffffff"
     bordercolor="#666666"
     borderopacity="1.0"
     inkscape:pageshadow="2"
     inkscape:pageopacity="0.0"
     inkscape:pagecheckerboard="0"
     inkscape:document-units="mm"
     showgrid="false"
     inkscape:zoom="0.4386604"
     inkscape:cx="336.25101"
     inkscape:cy="501.52692"
     inkscape:window-width="1553"
     inkscape:window-height="752"
     inkscape:window-x="1579"
     inkscape:window-y="83"
     inkscape:window-maximized="0"
     inkscape:current-layer="layer1"
     units="px"
     height="400.51965px"
     width="690.70081px" />
  <defs
     id="defs2" />
  <g
     inkscape:label="Layer 1"
     inkscape:groupmode="layer"
     id="layer1">
    <path
       style="fill:#808000;stroke-width:0.264583"
       id="path857"
       d="m 11.253113,43.49127 c 0.313145,-0.299736 0.614422,-0.612384 0.939436,-0.899205 2.662425,-2.349585 0.583336,-0.355479 3.54525,-2.957923 2.100573,-1.845641 3.972934,-3.84415 5.800315,-5.95427 2.482893,-2.914838 4.300326,-6.277661 5.715696,-9.815857 0.853072,-2.072357 1.040366,-4.272687 0.992508,-6.485682 -0.13099,-1.094253 -0.507762,-2.390197 -1.783583,-2.405067 -1.255448,0.77936 -2.583445,1.452469 -3.766341,2.338081 -0.134096,0.100396 -0.687639,1.571286 -0.716822,1.647873 -0.44,1.154729 -0.822622,2.316051 -1.174856,3.500278 -0.668602,2.842546 -1.365602,5.678205 -2.018104,8.524211 -0.716897,3.295798 -0.94537,6.378845 -0.407054,9.708214 0.740267,3.475434 2.301806,6.700731 3.694144,9.948372 0,0 3.258561,-1.831107 3.258561,-1.831107 v 0 c -1.397143,-3.219413 -2.869237,-6.450737 -3.565493,-9.910733 -0.49874,-3.214418 -0.274042,-6.403972 0.470434,-9.574583 0.671793,-2.839781 1.345989,-5.678871 2.05018,-8.510812 0.368855,-1.177981 0.757034,-2.343118 1.231551,-3.483808 0.120105,-0.288719 0.234447,-0.581105 0.381936,-0.85684 0.125989,-0.235537 0.688118,-0.760664 0.436026,-0.672343 -1.070714,0.37513 -2.010995,1.050949 -3.016491,1.576424 1.04154,-0.668581 1.357302,1.09162 1.441339,1.787554 0.05399,2.159524 -0.13897,4.289967 -0.987219,6.307839 -1.413073,3.472701 -3.198283,6.781926 -5.645343,9.647393 -3.192735,3.637534 -6.783291,6.798762 -10.5275042,9.855316 0,0 3.6514342,-1.483325 3.6514342,-1.483325 z" />
    <path
       style="fill:#808000;stroke-width:0.264583"
       id="path892"
       d="m 40.979668,28.869792 c -1.772991,3.180818 -3.650152,6.277641 -5.121603,9.614886 -0.787318,2.253168 -1.582033,4.582438 -1.778407,6.981886 -0.0793,0.968915 0.02983,1.658178 0.125211,2.605866 0.290436,0.985469 0.327568,1.441455 0.996982,2.286473 1.842257,2.325521 5.235572,3.550005 7.864078,4.687025 3.494035,1.38077 6.755881,2.66119 10.51747,2.997422 2.94925,0.204565 4.771914,-0.811546 7.253907,-2.765639 0.24737,-0.194757 0.19318,-0.599308 0.289772,-0.898962 0.318301,-4.012877 0.06664,-8.070818 -0.335757,-12.070751 -0.39244,-2.571047 -0.45472,-5.191536 -0.829447,-7.763516 -0.08893,-0.610354 -0.447847,-2.181688 -0.583909,-2.796508 -0.519478,-1.467575 -0.808903,-3.47509 -2.114058,-4.518184 -0.213333,-0.170497 -0.468027,-0.281551 -0.70204,-0.422328 -4.522391,-1.385614 -4.958961,-0.425619 -9.32293,2.097995 -0.95192,0.626161 -1.727332,1.44267 -2.485445,2.280354 0,0 3.585239,-1.50064 3.585239,-1.50064 v 0 c 0.771493,-0.809379 1.561706,-1.59372 2.522503,-2.184511 -0.819137,0.446339 -1.66619,0.844878 -2.457413,1.339014 -0.261191,0.163121 0.556461,-0.281853 0.858748,-0.340614 1.303816,-0.253439 2.755092,0.192133 4.017637,0.445312 0.213534,0.110289 0.445068,0.19113 0.640601,0.330872 1.290201,0.922071 1.561478,2.92947 2.067433,4.294333 0.769503,3.447188 1.089226,6.959312 1.493485,10.465472 0.374103,3.962046 0.67741,8.02486 0.100386,11.977254 -0.895043,1.688589 -0.686499,0.963917 2.512838,-0.82527 0.186687,-0.104405 -0.38503,0.187275 -0.583539,0.266943 -0.904293,0.362929 -1.82186,0.420794 -2.792608,0.347644 -1.069935,-0.06759 -1.751267,-0.07715 -2.822533,-0.291613 -2.666605,-0.533839 -5.178784,-1.656924 -7.742621,-2.521172 -2.607106,-1.115325 -5.790716,-2.229615 -7.607107,-4.558969 -0.615603,-0.789456 -0.64966,-1.229503 -0.911592,-2.149269 -0.09794,-0.948409 -0.198827,-1.525609 -0.117129,-2.499389 0.198086,-2.361099 0.970331,-4.656481 1.768848,-6.866678 1.494068,-3.340815 3.335227,-6.504443 5.339792,-9.56501 0,0 -3.646792,1.520272 -3.646792,1.520272 z" />
    <path
       style="fill:#808000;stroke-width:0.264583"
       id="path894"
       d="m 86.609556,26.861512 c -0.910394,-1.212051 -2.494478,-3.176641 -4.226407,-3.077507 -2.124905,0.121629 -6.192551,3.416319 -6.748271,3.777335 -3.495824,3.484695 -5.245074,7.964051 -6.251657,12.703003 -0.426691,2.763731 0.267231,5.658207 2.784676,7.220492 0.44651,0.277098 0.953185,0.442785 1.429779,0.664176 3.109198,0.93319 6.237409,0.673541 9.072832,-0.974498 5.566471,-3.235412 4.307425,-2.232903 7.416215,-5.614387 1.511791,-1.866831 2.741231,-3.930375 3.782951,-6.089533 0.23825,-0.493821 0.44948,-1.000305 0.66463,-1.504619 0.12956,-0.303687 0.67814,-1.035961 0.36937,-0.919057 -1.30653,0.494649 -2.40124,1.428578 -3.60185,2.142868 -0.96717,5.149726 -2.420704,10.186802 -3.53239,15.30626 -1.144995,4.793326 -1.64107,9.72454 -2.995211,14.464998 -0.554016,1.972873 -1.247155,3.957619 -2.845755,5.310915 -0.189695,0.118845 -0.756425,0.479076 -0.569089,0.356539 0.977336,-0.639273 2.10489,-1.08961 2.939182,-1.90681 0.174847,-0.171267 -0.269941,-0.422492 -0.315698,-0.662932 -0.377098,-1.981607 -0.05622,-4.229949 0.0357,-6.217422 0.278699,-2.522466 0.315492,-5.15733 1.469925,-7.478935 0.441846,-0.888569 1.091398,-1.740479 1.659123,-2.545127 0.891,-1.154981 1.77878,-2.310668 2.908646,-3.2462 0.309012,-0.255862 1.312277,-0.92202 0.970747,-0.711504 -2.943586,1.814436 -2.247359,1.37178 0.31485,0.743177 3.71632,-0.670528 1.86928,-0.33751 5.54113,-0.999069 0,0 2.9513,-2.226088 2.9513,-2.226088 v 0 c -3.65836,0.665729 -1.82339,0.347785 -5.50499,0.953519 -0.73454,0.145148 -1.51561,0.140044 -2.20362,0.435441 -3.952557,1.697045 -6.121997,3.264151 -8.487719,6.578306 -0.631798,0.923446 -1.162164,1.608426 -1.624978,2.630006 -1.071322,2.36475 -1.056251,5.012401 -1.326227,7.543051 -0.09998,1.836018 -0.487976,4.659074 -0.09442,6.463268 0.08127,0.37257 0.118425,1.098857 0.493834,1.031917 2.071584,-0.36939 3.095612,-1.196128 4.469236,-2.226423 1.480769,-1.485556 2.134192,-3.464013 2.655916,-5.461693 1.267386,-4.740897 1.67172,-9.659787 2.862378,-14.423353 1.15469,-5.178248 2.54123,-10.295983 3.77264,-15.456077 -1.15853,0.41421 -2.40135,0.642813 -3.47558,1.242629 -0.26957,0.150516 -0.19638,0.5858 -0.31183,0.872135 -0.19833,0.491874 -0.40034,0.982919 -0.629079,1.461405 -1.015402,2.124075 -2.237997,4.142779 -3.743121,5.9588 -0.666618,0.691634 -1.512382,1.24719 -1.999853,2.074905 -0.15489,0.262998 1.148662,-0.365839 0.894127,-0.197403 -2.667402,1.765128 -5.775433,2.028296 -8.790104,1.170794 -0.455236,-0.196818 -0.937392,-0.34041 -1.36571,-0.590452 -2.462623,-1.437619 -3.054268,-4.181927 -2.642182,-6.818116 0.984591,-4.693283 2.789579,-9.0981 6.341237,-12.455692 -0.500671,0.167111 -1.728915,0.97789 -1.502011,0.501327 0.248524,-0.521962 1.019988,-0.602062 1.591485,-0.689242 1.645655,-0.251047 3.208417,1.652405 3.973229,2.835029 0,0 3.422616,-1.950156 3.422616,-1.950156 z" />
    <path
       style="fill:#808000;stroke-width:0.264583"
       id="path896"
       d="m 130.80213,31.610179 c -3.55136,0.99663 -6.56301,2.562656 -9.6651,4.639284 -0.49017,0.328131 -0.87069,0.796004 -1.30604,1.194006 -1.57255,1.672127 -3.30172,3.268829 -4.55667,5.211593 -0.61724,0.955537 -0.83409,1.560655 -1.28114,2.585487 -1.41679,3.915439 -0.82786,4.848429 1.71335,8.137144 2.96014,3.259519 6.34633,6.126231 10.26213,8.15798 0.3683,0.119692 0.72203,0.300966 1.10491,0.359079 3.75663,0.570183 8.35691,-3.174444 11.03561,-4.894582 4.60218,-3.547864 7.3746,-8.644231 9.76297,-13.821574 0.70537,-2.141077 2.56212,-5.584016 2.19701,-7.930592 -0.0544,-0.349575 -0.20296,-0.677828 -0.30444,-1.016743 -1.26273,-3.029061 -4.1785,-3.485015 -7.06663,-4.204462 -2.07829,-0.308676 -4.25671,-0.761389 -6.34504,-0.243203 -1.00785,0.250082 -1.6573,0.619821 -2.58659,1.064768 -2.43708,1.115513 -4.36054,2.379496 -6.29278,4.062865 0,0 3.59503,-1.455872 3.59503,-1.455872 v 0 c 0.87166,-0.727628 4.18395,-3.036949 -0.30709,-0.205216 0.8104,-0.415227 1.63709,-0.886585 2.51725,-1.149533 2.05386,-0.613595 4.22688,-0.197091 6.29502,0.08275 2.70617,0.658857 5.59577,1.059907 6.77537,3.909599 0.0834,0.308568 0.20687,0.609021 0.25032,0.925703 0.33023,2.407119 -1.39903,5.493835 -2.08972,7.694012 -2.38904,5.187431 -5.24192,10.207813 -9.91035,13.6852 0.53678,-0.219668 1.55391,-1.236242 1.61033,-0.659006 0.0588,0.601469 -1.04699,0.605782 -1.58951,0.872043 -1.70286,0.835742 -3.57123,1.461825 -5.43358,0.806463 -3.95367,-1.883786 -7.38207,-4.658675 -10.27227,-7.943209 -0.47552,-0.65558 -1.0119,-1.271072 -1.42658,-1.966738 -1.15324,-1.934681 -0.78877,-3.892312 0.007,-5.870059 1.38253,-3.048527 3.43914,-5.342335 5.86268,-7.629396 0.80073,-0.686175 3.23431,-2.593131 -0.61018,-0.142443 -0.43246,0.275674 0.92024,-0.454618 1.39364,-0.651899 1.15475,-0.48123 2.36573,-0.77587 3.54633,-1.179701 0,0 3.11521,-2.423747 3.11521,-2.423747 z"
       inkscape:export-filename="/home/aki/logo.png"
       inkscape:export-xdpi="96"
       inkscape:export-ydpi="96" />
    <path
       style="fill:#808000;stroke-width:0.264583"
       id="path914"
       d="m 5.1198898,6.8361085 c 0.160683,6.3641855 0.146538,12.7299645 0.310244,19.0941945 0.266234,6.952416 0.07156,13.933841 1.078346,20.832862 0.567637,3.402836 1.208747,6.85459 2.595248,10.037961 0.299962,0.688703 0.674719,1.342353 1.0120782,2.013527 1.40866,3.2776 3.983947,5.492051 6.618464,7.751863 1.939156,1.895877 4.418055,2.805118 6.895241,3.746635 3.936582,1.4962 0.442595,0.216916 5.066122,1.876729 6.067928,2.004034 11.932102,4.509847 17.676109,7.293578 3.554573,1.952321 7.454302,2.820863 11.441213,3.292512 5.223218,0.765376 10.469379,1.246958 15.746811,1.318096 8.00222,-0.197511 15.882705,-1.747552 23.765618,-3.002253 5.008566,-0.722128 10.029576,-1.46153 15.087136,-1.71155 0.76241,-0.01148 1.52475,-0.02985 2.28723,-0.03444 0.72279,-0.0044 1.44589,-0.01297 2.1684,0.0076 1.48117,0.04211 3.20286,0.390921 4.66378,-0.06256 0.43173,-0.134014 0.81163,-0.398307 1.21745,-0.597461 1.47621,-1.029973 3.04226,-1.941878 4.42864,-3.089915 0.54721,-0.453134 1.96598,-2.806833 2.2988,-3.332922 0.97868,-1.547037 1.94815,-3.068831 3.03784,-4.539829 1.0063,-1.10485 2.09949,-2.132412 3.31368,-3.007154 0.35079,-0.252717 1.46032,-0.92502 1.08396,-0.712248 -3.80878,2.153256 -2.46975,1.473885 -1.20817,0.874697 1.78487,-0.866429 3.76822,-1.057733 5.6784,-1.490258 3.28378,-0.903356 6.66177,-1.356759 9.97489,-2.131793 2.72498,-0.759113 5.37561,-1.811401 7.89269,-3.101062 3.62651,-1.425969 5.97766,-3.993994 8.75153,-6.480995 2.83629,-2.369108 4.27197,-6.394341 5.64548,-9.723469 3.04718,-7.54829 4.72555,-15.539471 6.34975,-23.487049 0.33451,-2.457075 1.5225,-6.356048 0.81403,-8.8642517 -0.0797,-0.2820738 -0.24613,-0.5320458 -0.3692,-0.7980698 -0.27114,-0.204346 -0.50471,-0.471697 -0.81342,-0.613036 -0.65549,-0.30012 -2.40693,-0.605553 -3.05456,-0.712645 -1.858,-0.30724 -3.71796,-0.44983 -5.59511,-0.572708 -5.55844,-0.374444 -11.10607,-0.922131 -16.67672,-1.045795 -5.32793,-0.01989 -10.65513,0.09328 -15.98202,0.183064 -2.11991,0.02034 -4.23973,0.106893 -6.35814,0.01329 -3.19559,-0.257058 -6.37679,-0.593818 -9.57945,-0.754907 -8.3241,-0.310495 -16.64572,0.184262 -24.957366,0.585192 -9.489303,0.411155 -18.996343,-0.32345 -28.472551,-0.81581 C 58.199413,4.4585925 47.529201,2.9128995 36.864807,1.4636775 32.192443,0.88829823 27.467546,0.30674692 22.746625,0.44827682 c -2.761684,0.082793 -4.32285,0.33183301 -7.070786,0.65973748 -2.737215,0.4021698 -5.48691,0.7412422 -8.2006982,1.2886182 -0.775622,0.156445 -2.094283,0.413227 -2.84645,0.82047 -1.410843,0.763868 -2.763533,1.630573 -4.14529952,2.44586 -0.142717,0.247639 -0.3419242,0.470413 -0.4281508,0.742916 -0.4545489,1.436516 0.42555,3.1969688 1.05151332,4.4383035 0.309644,0.58731 0.468981,1.020438 1.011472,1.46261 1.329973,1.084032 3.253625,1.863287 4.792464,2.627689 0,0 3.2257662,-2.126268 3.2257662,-2.126268 v 0 C 8.6311908,12.081597 6.7626718,11.339522 5.4585428,10.293854 4.9571888,9.8918613 4.7895408,9.4539465 4.4977978,8.9115225 c -0.558973,-1.104527 -1.454889,-2.810717 -0.857917,-4.072767 0.107898,-0.228106 0.312708,-0.396119 0.469063,-0.594179 -0.837793,0.453007 -1.710485,0.846699 -2.513379,1.35902 -0.366589,0.233919 0.783592,-0.383817 1.196912,-0.518991 3.218915,-1.052731 6.688903,-1.173058 9.9890162,-1.82003 2.695937,-0.330496 4.299564,-0.591014 7.008358,-0.673025 4.767498,-0.14434 9.552858,0.343148 14.283036,0.84574 10.68479,1.336917 21.339987,3.112554 32.105616,3.633381 5.679593,0.253512 11.355567,0.545328 17.032559,0.850732 3.136011,0.168708 5.369899,0.344552 8.434972,0.286065 0.94957,-0.01812 1.89649,-0.106597 2.84473,-0.159895 8.277666,-0.493178 16.582066,-1.077477 24.873826,-0.575863 3.16149,0.215669 6.30151,0.600581 9.46108,0.840145 2.13623,0.155661 4.27134,0.06474 6.41054,-0.0119 5.37093,-0.172522 10.74371,-0.345668 16.11822,-0.304291 5.52947,0.140118 11.03802,0.687961 16.55151,1.116574 2.40257,0.160701 4.78999,0.356716 7.14942,0.8627968 0.4311,0.09247 0.8727,0.1583967 1.28435,0.3163417 0.25792,0.09896 0.46621,0.29651 0.69932,0.444765 1.28661,2.669547 0.0124,6.570696 -0.30628,9.319057 -1.51576,7.963942 -3.20071,15.956428 -6.42052,23.436646 -1.50641,3.430815 -2.92508,7.197164 -5.88685,9.652103 -1.22127,1.132194 -2.37001,2.327894 -3.70103,3.337168 -0.28934,0.219398 -1.21731,0.785525 -0.89022,0.627849 0.84078,-0.405294 1.62629,-0.916432 2.43944,-1.374648 -2.50533,1.350597 -5.17714,2.403239 -7.89909,3.227448 -3.28237,0.803193 -6.6386,1.208482 -9.90469,2.08139 -1.91698,0.457483 -3.91992,0.600197 -5.73247,1.429345 -3.65527,1.687857 -7.12528,3.667609 -9.72915,6.775304 -1.46339,2.047484 -2.66757,4.269357 -4.14488,6.304267 -0.38007,0.523526 -1.71833,1.10317 -1.21689,1.511938 0.58033,0.47308 1.40183,-0.526534 2.10274,-0.789803 -0.37789,0.232532 -0.72057,0.535686 -1.13368,0.697596 -1.43803,0.563604 -3.22583,0.209904 -4.70245,0.17077 -0.7275,-0.01929 -1.45551,-0.01035 -2.18325,-0.0053 -0.76957,0.0053 -1.53898,0.02421 -2.30848,0.03633 -5.11188,0.206364 -10.17601,0.973116 -15.22686,1.762453 -7.831496,1.292772 -15.663179,2.85333 -23.627402,2.978353 C 71.318711,81.865948 66.092561,81.457357 60.912731,80.576879 56.940605,80.146698 53.04942,79.339227 49.496172,77.419482 43.700458,74.695842 37.77413,72.287142 31.739831,70.138585 30.806217,69.784258 29.872606,69.429928 28.938992,69.075598 28.212202,68.785516 27.489083,68.486069 26.758627,68.205351 24.32682,67.270803 21.865211,66.444928 19.974842,64.5471 17.39057,62.318266 14.807566,60.156681 13.380068,56.95525 13.049475,56.296749 12.6788,55.656889 12.38829,54.979751 11.030307,51.81448 10.450568,48.375516 9.8161468,45.014826 8.7453728,38.178353 8.7696698,31.249958 8.5199828,24.348138 8.4265528,17.913901 8.4667728,11.47801 8.6351908,5.0449975 c 0,0 -3.515301,1.791136 -3.515301,1.791136 z" />
    <circle
       id="path950"
       style="fill:#808000;stroke:#000000;stroke-width:0.264583"
       cx="172.18968"
       cy="-52.050949"
       r="0.080341138" />
    <circle
       id="path952"
       style="fill:#808000;stroke:#000000;stroke-width:0.264583"
       cx="172.18968"
       cy="-52.050949"
       r="0.080341138" />
  </g>
</svg>
